<svg width="99" height="69" viewBox="0 0 99 69" fill="none" xmlns="http://www.w3.org/2000/svg">
<path fill-rule="evenodd" clip-rule="evenodd" d="M39.434 47.8344C39.434 60.1104 31.1321 69 19.9245 69C9.13208 69 0 60.9571 0 47.8344C0 41.0613 2.49057 35.5583 6.22642 30.0552L25.7358 0H44L30.3019 30.4785C36.5283 33.865 39.434 40.638 39.434 47.8344ZM94.434 47.8344C94.434 60.1104 86.1321 69 74.9245 69C64.1321 69 55 60.9571 55 47.8344C55 41.0613 57.4906 35.5583 61.2264 30.0552L80.7358 0H99L85.3019 30.4785C91.5283 33.865 94.434 40.638 94.434 47.8344Z" fill="#FF5304"/>
</svg>
