<svg width="99" height="69" fill="none" version="1.1" viewBox="0 0 99 69" xmlns="http://www.w3.org/2000/svg">
 <path d="m39.434 47.834c0 12.276-8.3019 21.166-19.51 21.166-10.792 0-19.924-8.0429-19.924-21.166 0-6.7731 2.4906-12.276 6.2264-17.779l19.509-30.055h18.264l-13.698 30.478c6.2264 3.3865 9.1321 10.16 9.1321 17.356zm55 0c0 12.276-8.3019 21.166-19.51 21.166-10.792 0-19.924-8.0429-19.924-21.166 0-6.7731 2.4906-12.276 6.2264-17.779l19.509-30.055h18.264l-13.698 30.478c6.2264 3.3865 9.1321 10.16 9.1321 17.356z" clip-rule="evenodd" fill="#FF5304" fill-rule="evenodd"/>
</svg>
